<svg width="147" height="140" viewBox="0 0 147 140" fill="none" xmlns="http://www.w3.org/2000/svg">
<path fill-rule="evenodd" clip-rule="evenodd" d="M65.5547 0.308269C63.0045 0.615233 60.0994 1.19754 57.9765 1.82728C57.2377 2.04636 56.4744 2.22561 56.2802 2.22561C56.086 2.22561 55.5463 2.41041 55.0808 2.63627C54.6153 2.86213 54.1163 3.04692 53.9718 3.04692C53.4918 3.04692 45.2625 7.03191 44.8157 7.48055C44.6867 7.61011 44.3097 7.86964 43.9779 8.0571C42.8098 8.71702 40.5189 10.3024 39.8995 10.8793C39.6746 11.0888 39.0679 11.6528 38.5513 12.1326C35.3841 15.0748 32.438 18.1165 32.438 18.4442C32.438 18.5583 32.3515 18.6518 32.246 18.6518C32.1403 18.6518 31.6115 19.2659 31.0706 20.0164C30.5297 20.767 29.9491 21.5319 29.7805 21.7161C29.4409 22.0869 28.503 23.5092 28.2808 23.9903C28.2025 24.1597 27.8703 24.714 27.5428 25.2222C26.4627 26.8975 24.0094 32.0613 23.2505 34.2566C22.9263 35.1945 22.043 38.4252 21.7993 39.5645C21.6941 40.0559 21.5107 40.8213 21.3917 41.2655C21.2725 41.7096 21.0892 42.7859 20.9839 43.6573C20.8786 44.5287 20.6952 45.8884 20.5763 46.6789C20.2911 48.5726 20.2976 54.2569 20.5871 56.3293C20.7134 57.2327 20.8886 58.5743 20.9767 59.3106C21.3224 62.1985 22.5032 66.5299 24.1889 71.0925C24.6627 72.3754 27.2162 77.3644 27.9294 78.4011C28.1238 78.6838 28.3483 79.0538 28.4282 79.2232C28.9223 80.271 30.8882 83.137 31.7382 84.0484C32.0541 84.3872 32.948 85.4498 33.7246 86.4097C36.0763 89.3163 40.9565 93.8033 43.6813 95.5644C44.1872 95.8913 44.6472 96.2068 44.7034 96.2654C44.8535 96.4216 46.3903 97.3998 46.7477 97.5663C46.9163 97.645 47.4683 97.9772 47.9742 98.3043C48.9877 98.9601 50.3688 99.6553 52.0116 100.337C52.6018 100.582 53.5217 100.964 54.0558 101.185C57.1563 102.472 62.2837 103.824 65.0436 104.083C65.9431 104.168 67.7369 104.348 69.0299 104.483C73.8083 104.983 81.3847 104.247 86.0993 102.824C86.7739 102.62 87.631 102.393 88.0039 102.318C88.377 102.242 88.9289 102.052 89.2305 101.894C89.5322 101.736 89.9169 101.603 90.0856 101.598C90.2542 101.594 90.7602 101.411 91.2099 101.193C91.6596 100.975 92.0969 100.793 92.1817 100.79C92.3653 100.781 97.424 98.2519 98.5086 97.6261C99.6698 96.9563 101.828 95.5894 101.942 95.4512C101.998 95.3835 102.504 95.0334 103.066 94.6737C103.629 94.3137 104.431 93.7162 104.849 93.3456C105.268 92.9752 106.05 92.3064 106.587 91.8595C107.802 90.8488 111.204 87.442 112.235 86.2043C113.23 85.0091 115.666 81.7171 115.996 81.1217C116.137 80.8681 116.367 80.4525 116.507 80.1985C116.648 79.9443 116.886 79.5813 117.037 79.3914C117.363 78.9822 117.563 78.6081 119.369 75.0302C120.128 73.527 120.749 72.2296 120.749 72.1468C120.749 72.0639 120.883 71.705 121.047 71.3491C121.324 70.7453 121.634 69.9272 122.144 68.4436C123.557 64.3436 124.531 58.0973 124.531 53.1467C124.531 45.3525 123.119 38.7748 119.777 30.9958C118.92 29.0002 116.584 24.629 116.253 24.4009C116.172 24.3445 115.951 24.0211 115.763 23.6823C114.832 22.0017 113.032 19.5478 110.056 15.9012C109.697 15.4614 109.33 14.9762 109.24 14.8232C109.15 14.6703 109.001 14.5452 108.908 14.5452C108.815 14.5452 108.383 14.2169 107.947 13.8157C107.511 13.4143 106.726 12.8094 106.202 12.4712C105.678 12.1333 105.198 11.7224 105.135 11.5583C105.073 11.3943 104.888 11.26 104.725 11.26C104.562 11.26 104.399 11.1906 104.361 11.106C104.256 10.8686 102.603 9.61738 102.395 9.61738C102.293 9.61738 102.063 9.45579 101.884 9.25806C101.705 9.06033 101.116 8.66775 100.575 8.38542C100.034 8.1031 99.5453 7.82242 99.4891 7.76164C99.0265 7.26167 92.2862 3.86823 91.7559 3.86823C91.631 3.86823 91.2013 3.68343 90.801 3.45757C90.4008 3.23171 89.9502 3.04692 89.8 3.04692C89.6497 3.04692 89.0775 2.87136 88.5285 2.6568C86.3532 1.80674 82.0713 0.858339 77.8168 0.28445C74.933 -0.104439 68.8864 -0.0927345 65.5547 0.308269ZM77.2068 4.57866C81.1389 4.98849 86.1782 6.21183 89.4723 7.55672C91.7216 8.47494 94.5236 9.72333 94.9926 10.0163C95.2743 10.1921 95.6882 10.4506 95.9125 10.5906C96.1369 10.7305 96.678 11.0539 97.1149 11.3093C98.1061 11.8885 98.351 12.0439 99.4686 12.8041C99.9631 13.1406 100.509 13.5083 100.682 13.6213C101.447 14.1225 108.106 20.6439 109.303 22.0657C110.025 22.9224 110.216 23.1854 110.928 24.2983C111.144 24.637 111.396 25.0114 111.487 25.13C111.706 25.4163 112.172 26.2187 112.52 26.9121C112.676 27.2205 112.883 27.5225 112.981 27.5835C113.079 27.6445 113.292 27.9465 113.454 28.2549C113.616 28.5631 114.162 29.6014 114.667 30.562C116.793 34.6034 118.396 39.6473 119.464 45.6523C119.993 48.624 119.986 56.9124 119.453 59.8198C118.269 66.2722 116.711 70.696 113.812 75.8353C113.366 76.6258 112.846 77.5498 112.657 77.8886C112.467 78.2274 112.187 78.5785 112.034 78.6688C111.88 78.7592 111.755 78.92 111.755 79.0263C111.755 79.2008 111.097 80.1447 109.853 81.7555C108.039 84.104 102.085 90.1056 101.569 90.1056C101.487 90.1056 101.273 90.2673 101.093 90.4649C100.799 90.7876 98.9445 92.0913 96.739 93.5255C94.2965 95.1137 88.3259 97.724 85.7927 98.311C85.3991 98.4022 84.6747 98.626 84.1826 98.8083C83.6908 98.9907 83.0873 99.1399 82.8418 99.1399C82.5963 99.1399 81.6649 99.318 80.772 99.5354C78.3328 100.129 72.0472 100.461 68.8304 100.166C66.2771 99.9311 63.1887 99.3876 61.0573 98.7979C60.439 98.6268 59.611 98.41 59.2175 98.316C56.7769 97.7332 53.2853 96.23 50.4273 94.5318C47.4793 92.7797 45.7047 91.5864 45.4598 91.1909C45.3698 91.0457 45.1705 90.9269 45.017 90.9269C44.8633 90.9269 44.7069 90.8577 44.6693 90.7729C44.6319 90.6881 43.9113 90.0396 43.068 89.3315C40.7791 87.4096 37.9838 84.4868 36.4441 82.4058C35.6922 81.3894 34.6901 80.0552 34.2175 79.4407C33.3129 78.2652 31.783 76.0047 31.5575 75.5105C31.4843 75.3503 31.1955 74.8498 30.9156 74.398C30.3557 73.4946 28.3495 69.439 28.3495 69.2107C28.3495 69.1318 28.1655 68.5805 27.9406 67.9855C26.0215 62.9069 25.1586 58.908 24.9601 54.1733C24.8162 50.7343 25.1163 45.3886 25.554 43.599C25.7196 42.9214 26.0573 41.4893 26.304 40.4164C28.5713 30.5611 33.6157 22.2861 41.6056 15.3152C42.0909 14.8918 42.568 14.5452 42.6657 14.5452C42.7634 14.5452 42.9168 14.4284 43.0067 14.2857C43.0966 14.143 43.6991 13.6656 44.3457 13.225C44.9923 12.7843 45.5219 12.3698 45.5228 12.3039C45.5236 12.238 45.7306 12.0805 45.9827 11.9542C46.7023 11.5934 47.5887 11.0793 48.5875 10.4436C49.5579 9.82579 50.9424 9.11474 52.4715 8.44866C53.3585 8.06224 53.8831 7.85978 55.6401 7.22512C56.0898 7.0627 56.7477 6.79537 57.1019 6.6309C57.4562 6.46664 57.8491 6.33215 57.975 6.33215C58.101 6.33215 58.869 6.1529 59.6818 5.93382C65.3789 4.39838 71.1753 3.95015 77.2068 4.57866ZM69.9263 14.183C69.2032 14.746 68.6329 15.4456 68.2191 16.2768C68.0125 16.6919 67.7314 16.9244 67.3945 16.9591C66.3206 17.0695 61.1377 18.7136 58.1171 19.9018C56.857 20.3973 56.5318 20.3944 56.0964 19.8837C55.8175 19.5566 55.4933 19.4731 54.5035 19.4731C53.4601 19.4731 53.1191 19.5708 52.3795 20.0819C51.3934 20.7636 51.2464 21.0253 51.2419 22.1078C51.2401 22.522 51.1692 22.9708 51.0841 23.1053C50.8834 23.4223 49.7946 24.1451 48.3831 24.898C47.7647 25.228 47.2127 25.5616 47.1565 25.6395C47.1003 25.7173 46.7425 25.9415 46.3615 26.1376C45.8141 26.4193 45.5657 26.447 45.1765 26.2688C44.3099 25.8723 42.7816 25.9908 42.125 26.5055C40.6086 27.6942 40.2051 28.7385 40.6211 30.3973C40.8173 31.18 40.802 31.4284 40.5283 31.9218C40.0654 32.7551 39.714 33.3158 39.5793 33.4353C39.5157 33.4918 39.157 34 38.7821 34.5646C38.4072 35.1293 37.9429 35.776 37.7503 36.0019C37.5576 36.2278 37.1021 36.9669 36.738 37.6445C35.96 39.0927 35.8543 39.1773 34.8158 39.1814C34.1752 39.1838 33.8779 39.3325 33.2485 39.9645C32.3742 40.8429 32.1113 41.757 32.3239 43.1809C32.4269 43.87 32.6209 44.2238 33.1136 44.6199C33.4728 44.9088 33.8679 45.227 33.9918 45.3268C34.1547 45.4584 34.1419 45.8683 33.945 46.8124C33.7954 47.5296 33.6711 48.465 33.6688 48.8913C33.6655 49.4987 33.565 49.7081 33.2046 49.8594C32.4599 50.1721 31.8374 50.8074 31.514 51.5852C31.1354 52.495 31.1319 53.1112 31.5003 53.9943C31.9185 54.9973 32.5882 55.5301 33.9125 55.9133C34.905 56.2005 35.2057 56.4114 35.9146 57.3169C37.5195 59.3667 38.0676 60.0134 39.1151 61.0931C39.6956 61.6916 40.2249 62.1811 40.2909 62.1811C40.3572 62.1811 40.7764 62.5704 41.2227 63.0463C41.8143 63.6773 42.0702 64.1541 42.1679 64.8082C42.3619 66.1086 43.2945 67.0646 44.5346 67.2348C45.0601 67.3069 45.8241 67.3028 46.2325 67.226C47.1502 67.0531 48.4898 65.7649 48.6862 64.8666C48.7854 64.4132 49.0464 64.1044 49.5757 63.814C49.988 63.5882 50.693 63.1728 51.1428 62.8913C51.5925 62.6096 52.1445 62.2866 52.3693 62.1735C52.5942 62.0602 53.1921 61.6957 53.6981 61.3633C54.204 61.031 54.894 60.6146 55.2313 60.4381C56.4398 59.805 56.8057 59.5486 57.7453 58.6751C57.9366 58.4971 58.5531 58.0351 59.1153 57.6485C59.6775 57.2617 60.1834 56.8888 60.2396 56.82C60.2959 56.751 60.6178 56.5403 60.9551 56.3516C61.2924 56.1632 61.8444 55.8266 62.1817 55.604C62.519 55.3813 63.1169 55.0503 63.5104 54.8686C63.9039 54.6866 64.2719 54.4715 64.3281 54.3904C64.3843 54.3091 65.1203 53.9068 65.9635 53.4962L67.4967 52.7496L67.9556 53.3075C68.2079 53.6142 68.3909 53.9378 68.362 54.0265C68.3332 54.115 66.113 56.3917 63.428 59.0856C58.7516 63.7777 58.5215 63.9765 57.9577 63.814C56.3711 63.357 54.1539 64.3871 53.6909 65.7965C52.9765 67.9703 54.3349 70.003 56.7215 70.3315C57.3327 70.4157 57.8174 70.6408 58.1727 71.0058C59.1165 71.975 60.7393 72.9265 63.2982 74.0114C64.2662 74.4217 66.8248 74.5469 67.8127 74.2323C68.268 74.0874 68.3958 74.1636 68.8349 74.8418C69.1106 75.2682 69.5665 75.7228 69.8476 75.8522C71.5439 76.6328 72.3007 77.0394 72.3007 77.1702C72.3007 77.2519 72.5805 77.6779 72.9225 78.1169C74.1996 79.756 74.4224 80.0805 74.8112 80.8658C74.9508 81.1482 75.3169 81.7697 75.6244 82.2469C75.9321 82.7241 76.2884 83.5556 76.4165 84.0948C76.5445 84.634 76.6806 85.1923 76.7189 85.3358C76.7569 85.4791 77.1042 85.7836 77.4904 86.0126C78.4504 86.5815 78.5393 86.9528 77.9281 87.8385C76.2366 90.2903 79.1681 93.0707 81.384 91.1166C82.5278 90.108 82.6167 88.705 81.6116 87.5299L81.0987 86.9304L81.6502 86.64C82.7631 86.0545 83.0609 85.5036 83.1987 83.7763C83.296 82.5549 83.639 81.9222 84.2165 81.899C84.3055 81.8953 84.6274 81.7216 84.932 81.5128C85.2368 81.304 86.2219 80.6383 87.1214 80.0339C88.0209 79.4294 88.7875 78.861 88.8249 78.7709C88.8625 78.681 88.9729 78.6072 89.0702 78.6072C89.1677 78.6072 89.6563 78.33 90.1561 77.9913C90.6559 77.6525 91.2011 77.3753 91.3679 77.3753C92.1327 77.3753 93.2877 76.6254 94.6606 75.2374C95.4822 74.4071 96.3526 73.6642 96.595 73.587C96.8375 73.5096 97.036 73.3702 97.036 73.277C97.036 72.9256 97.6979 72.8731 98.4011 73.1681C99.2429 73.5213 100.06 73.558 100.799 73.2759C101.445 73.0291 102.522 72.0103 102.89 71.2964C103.221 70.6566 103.258 68.8918 102.952 68.3187C102.772 67.9797 102.873 67.7489 103.566 66.9178C104.022 66.3704 104.395 65.8343 104.395 65.7263C104.395 65.6183 104.579 65.3626 104.804 65.1583C105.029 64.954 105.213 64.6768 105.213 64.5423C105.213 64.4079 105.397 64.1307 105.622 63.9264C105.847 63.7221 106.031 63.4381 106.031 63.2956C106.031 63.1531 106.103 63.0059 106.192 62.9681C106.414 62.8745 107.666 60.9756 107.666 60.7335C107.666 60.6261 107.738 60.5385 107.826 60.5385C107.915 60.5385 108.249 59.9841 108.569 59.3065L109.152 58.0745L110.402 58.0735C113.293 58.0711 115.028 55.602 113.781 53.2646C113.298 52.3603 112.68 51.7706 112.025 51.5899C111.462 51.4345 111.44 51.371 111.155 49.0322C111.024 47.9638 110.84 46.7319 110.744 46.2947C110.585 45.5611 110.623 45.4492 111.246 44.8422C112.165 43.9454 112.423 42.9356 112.052 41.6819C111.604 40.1655 110.378 39.1845 108.931 39.1845C108.213 39.1845 108.094 39.111 107.851 38.5172C107.54 37.757 106.435 36.0364 106.192 35.9335C106.103 35.8957 106.031 35.7789 106.031 35.6736C106.031 35.383 103.981 32.614 103.766 32.614C103.662 32.614 103.578 32.5163 103.578 32.3966C103.578 32.2771 103.279 31.8054 102.913 31.3486C102.314 30.6002 102.256 30.4071 102.32 29.3976C102.502 26.5154 100.202 24.4371 97.9639 25.4612C97.5511 25.6501 97.3236 25.6395 96.8808 25.4103C96.5728 25.2508 96.2745 25.0643 96.2183 24.9962C96.1621 24.9278 95.3401 24.4876 94.3913 24.0176C92.2545 22.9589 91.9515 22.6873 91.7921 21.6859C91.5161 19.9523 89.8762 18.5477 88.348 18.7355C87.8982 18.791 87.2132 18.9953 86.8256 19.1897C86.1584 19.5248 86.0719 19.5246 85.1902 19.1864C84.6783 18.9901 83.9835 18.7485 83.6462 18.6495C83.3089 18.5505 82.573 18.3222 82.0108 18.1424C79.7515 17.4188 78.269 17.0126 77.0431 16.781C75.9186 16.5689 75.7137 16.4572 75.4282 15.901C75.2485 15.5505 74.7358 14.9175 74.2889 14.4939C73.5043 13.7502 73.4262 13.7239 71.9963 13.7239C70.7759 13.7239 70.4124 13.8046 69.9263 14.183ZM74.7538 16.6792C74.7538 16.7235 74.6111 16.8149 74.4365 16.8823C74.2545 16.9523 74.1726 16.9178 74.2441 16.8016C74.3641 16.6063 74.7538 16.5129 74.7538 16.6792ZM65.6622 18.6121C65.5994 18.6754 65.4345 18.6123 65.2957 18.4719C65.0953 18.269 65.1188 18.2456 65.4101 18.3569C65.6117 18.4341 65.7252 18.5489 65.6622 18.6121ZM78.0245 19.1673C78.6429 19.371 79.6088 19.6954 80.171 19.8882C80.7332 20.0811 81.6071 20.35 82.113 20.4858C85.2205 21.32 85.4852 21.4274 85.55 21.8795C85.6444 22.5394 85.3119 23.0209 84.4312 23.5002C82.9667 24.2966 82.0116 24.8547 81.7571 25.0625C81.5742 25.2118 81.3303 25.0834 80.8832 24.6028C80.3082 23.9845 80.1947 23.9453 79.3251 24.065C78.5291 24.1747 78.314 24.1243 77.9027 23.7328C77.6363 23.4792 77.4168 23.1562 77.4147 23.015C77.4129 22.8739 77.3363 22.7583 77.2445 22.7583C77.1527 22.7583 76.8538 22.378 76.5801 21.9132C76.3064 21.4483 75.9247 20.8245 75.7317 20.5272C74.9709 19.3544 74.9682 19.3447 75.2716 18.9099C75.5972 18.4427 75.9147 18.4723 78.0245 19.1673ZM68.7275 19.2004C69.0084 19.6312 69.0342 19.8191 68.8473 20.073C68.7163 20.2513 68.5552 20.5586 68.489 20.7564C68.4229 20.9541 68.3058 21.1157 68.2285 21.1157C68.1515 21.1157 67.6991 21.6701 67.2234 22.3474C66.7477 23.025 66.1189 23.7369 65.8261 23.9297C65.5334 24.1223 64.8925 24.8338 64.4021 25.5109C63.6777 26.5107 63.5104 26.9073 63.5104 27.6246C63.5104 28.1102 63.4362 28.5075 63.3455 28.5075C63.2545 28.5075 62.8849 28.9282 62.5241 29.4425C61.8877 30.3495 61.8391 30.3757 60.9128 30.3152C59.8925 30.2484 60.0381 30.3909 58.1488 27.6116C58.0057 27.4012 57.6394 26.908 57.3348 26.5156C56.5097 25.4534 56.4701 25.128 57.0594 24.257C57.3468 23.832 57.5821 23.2772 57.5821 23.024C57.5821 22.4807 58.0388 22.2171 60.3419 21.4303C61.2413 21.1231 62.2532 20.7543 62.5905 20.6106C62.9278 20.4671 63.8937 20.1435 64.737 19.8915C65.5802 19.6394 66.6381 19.2632 67.0879 19.0552C68.1813 18.5497 68.3105 18.5612 68.7275 19.2004ZM74.2131 21.4966C74.3698 21.7953 74.6497 22.3302 74.8347 22.6854C75.0197 23.0404 75.3071 23.4445 75.4735 23.5831C75.6397 23.7217 75.7759 23.9248 75.7759 24.0344C75.7759 24.1439 75.9599 24.4685 76.1847 24.7555C76.4773 25.129 76.5936 25.5885 76.5936 26.3696C76.5936 26.9702 76.6997 27.6954 76.8295 27.9814C77.0938 28.5643 78.491 29.3288 79.2918 29.3288C79.6066 29.3288 79.868 29.4725 79.9447 29.6881C80.0152 29.8858 80.2922 30.4059 80.5604 30.8441L81.0478 31.6408L80.4682 32.7017C79.8549 33.8242 79.859 34.2369 80.4991 35.8335C80.7841 36.544 80.7391 36.691 79.7566 38.2605C79.4737 38.7122 79.1797 39.2204 79.1031 39.3898C79.0264 39.5592 78.3154 40.6558 77.5231 41.8268C75.7186 44.4938 75.5962 44.6759 74.8966 45.7348C74.4445 46.419 74.2182 46.5879 73.8222 46.5374L73.3203 46.4736L73.3083 33.6406C73.3015 26.5825 73.3019 20.727 73.3093 20.6287C73.3301 20.35 73.896 20.8935 74.2131 21.4966ZM71.1984 33.679C71.2646 44.9223 71.236 46.5487 70.9697 46.6514C70.4537 46.8501 70.1738 46.6066 69.6432 45.4962C69.3621 44.9084 68.6169 43.7327 67.9871 42.8836C67.3575 42.0348 66.5296 40.8006 66.1473 40.1411C65.7652 39.4816 65.2818 38.6502 65.0731 38.2933C64.8645 37.9365 64.6115 37.6137 64.5109 37.5761C64.4105 37.5384 64.3281 37.3801 64.3281 37.224C64.3281 37.068 64.1441 36.8415 63.9193 36.7205C63.6944 36.5996 63.5104 36.3569 63.5104 36.1811C63.5104 36.0052 63.6944 35.6264 63.9193 35.3393C64.4722 34.6332 64.4714 32.9793 63.9179 31.9416L63.5074 31.1726L64.056 30.3398C64.3578 29.8819 64.8829 29.3626 65.2229 29.1861C65.5631 29.0095 65.9674 28.7383 66.1213 28.5836C66.4954 28.2079 67.592 26.0212 67.601 25.6329C67.6048 25.4635 67.7878 25.0939 68.0078 24.8116C68.2277 24.5293 68.4097 24.2354 68.4121 24.1588C68.4176 23.9868 69.9933 21.5594 70.4239 21.0594C70.5964 20.859 70.8243 20.7241 70.93 20.7594C71.0465 20.7985 71.1524 25.8986 71.1984 33.679ZM86.4973 25.0972C86.3634 25.5705 86.0261 26.3238 84.8372 28.805C84.2069 30.1203 83.9379 30.4751 83.452 30.6324C82.8894 30.8145 82.7821 30.7548 81.8581 29.7456C80.9269 28.7284 80.8877 28.6411 81.2031 28.291C81.3877 28.0863 81.6582 27.5693 81.8043 27.1422C82.0421 26.448 82.2837 26.253 84.0847 25.3015C86.1704 24.1999 86.7651 24.1496 86.4973 25.0972ZM91.5732 24.8699C91.9515 25.1278 93.1515 25.7885 94.2397 26.3384C96.1402 27.2985 96.4726 27.6379 96.0619 28.1995C95.6964 28.6992 95.1496 28.9485 93.8394 29.2132C92.4532 29.4932 90.5613 30.1043 89.3701 30.6566C87.0646 31.7256 85.5882 32.0898 85.5882 31.5894C85.5882 31.448 86.1263 30.2117 86.7839 28.8419C87.4415 27.4722 88.0834 26.0973 88.2104 25.7869C88.3668 25.405 88.5916 25.222 88.9058 25.2218C89.2693 25.2216 90.0498 24.9011 90.8432 24.4262C90.8663 24.4122 91.1948 24.612 91.5732 24.8699ZM53.0104 25.5321C53.3324 25.7025 53.9178 25.8967 54.3113 25.9635C55.0238 26.0846 55.5978 26.7677 57.0365 29.2074C57.2424 29.5565 57.6794 30.1831 58.0075 30.6C58.7167 31.5009 58.7146 31.4843 58.1954 32.1473C57.5934 32.916 57.6412 34.4849 58.3011 35.6159C58.852 36.56 59.6174 36.9224 61.0653 36.9246C61.7166 36.9257 61.855 37.0331 62.4544 38.0038C62.8205 38.5966 63.5294 39.6362 64.0297 40.3138C64.5301 40.9913 65.034 41.7654 65.1497 42.034C65.2654 42.3026 66.2391 43.3881 67.3135 44.4466C68.3882 45.505 69.2038 46.3709 69.1264 46.3709C69.0491 46.3709 68.4207 45.9214 67.7301 45.3724C67.0396 44.8232 66.1986 44.2213 65.8613 44.0351C64.804 43.4512 64.4964 43.2308 62.3926 41.549C59.5761 39.2974 59.2999 39.0586 57.7904 37.569C57.0617 36.8497 55.8689 35.7409 55.1397 35.105C54.4103 34.4689 53.5807 33.7176 53.296 33.4353C53.0112 33.153 52.5482 32.7633 52.2671 32.5694C51.986 32.3754 51.3881 31.9584 50.9384 31.6424C50.1376 31.08 48.8142 30.3907 47.7428 29.9776C46.7967 29.6129 46.9294 27.6862 47.9006 27.6862C48.0112 27.6862 48.2849 27.5246 48.509 27.3268C48.9935 26.8995 49.451 26.6006 50.4645 26.0487C50.8785 25.8232 51.2748 25.545 51.3454 25.4304C51.5324 25.1268 52.3372 25.1758 53.0104 25.5321ZM114.923 25.8382C114.993 25.9511 114.952 26.0435 114.833 26.0435C114.714 26.0435 114.616 25.9511 114.616 25.8382C114.616 25.7253 114.657 25.6329 114.707 25.6329C114.756 25.6329 114.854 25.7253 114.923 25.8382ZM93.7482 30.6336C93.7014 30.6737 92.7357 31.5284 91.6022 32.5329C90.4687 33.5374 89.1051 34.7289 88.572 35.1806C88.0389 35.6323 87.3563 36.2197 87.0554 36.4861C85.9701 37.4462 80.357 42.8161 78.6478 44.5295C77.6866 45.4929 76.6702 46.4631 76.3891 46.6855L75.8781 47.0896L76.2358 46.6627C76.4325 46.428 76.5936 46.1276 76.5936 45.9954C76.5936 45.8631 76.6657 45.7549 76.7538 45.7549C76.8421 45.7549 77.0871 45.4547 77.2982 45.0876C77.5094 44.7205 78.1404 43.8359 78.7006 43.122C79.7724 41.7554 80.4983 40.7252 80.7512 40.2111C80.8346 40.0417 81.2113 39.3487 81.5885 38.6711L82.2741 37.4392L83.377 37.4211C85.1792 37.3913 86.2033 36.4269 86.4 34.5738L86.5081 33.5567L87.7347 33.0663C89.0542 32.5389 90.4415 31.9159 91.3971 31.4217C92.0826 31.0671 93.988 30.4285 93.7482 30.6336ZM97.0392 31.6387C97.0431 32.1912 96.3653 35.2898 95.6825 37.8396C95.1947 39.661 94.9893 39.9965 94.3588 40.0027C93.9925 40.0062 92.6 41.4903 92.1278 42.3804C91.8101 42.9793 91.3738 43.1623 87.0192 44.5236C85.469 45.0082 83.323 45.9149 83.1351 46.1646C83.0789 46.2393 82.757 46.4397 82.4197 46.6101C82.0824 46.7805 81.474 47.1109 81.0678 47.3448C79.4864 48.2544 78.1895 48.8287 77.2068 49.0545C76.5087 49.2149 76.5265 49.1857 77.945 47.8462C78.7443 47.0912 79.9741 45.9654 80.6778 45.3443C81.3812 44.7232 82.4751 43.7041 83.1082 43.0795C85.1685 41.0476 88.1856 38.3632 88.4089 38.3632C88.5289 38.3632 88.6855 38.1784 88.7568 37.9525C88.8281 37.7266 88.9796 37.5418 89.0933 37.5418C89.2069 37.5418 89.6489 37.1955 90.0753 36.7719C91.7017 35.1568 95.2777 31.88 95.7878 31.5375C96.5386 31.0328 97.0352 31.073 97.0392 31.6387ZM48.2808 32.2331C48.9554 32.5877 49.581 33.0033 49.6709 33.1567C49.7609 33.3099 49.9677 33.4353 50.1309 33.4353C50.2938 33.4353 50.4273 33.5154 50.4273 33.6133C50.4273 33.7113 50.7724 34.0215 51.1939 34.3028C51.6156 34.5839 52.5584 35.3697 53.2892 36.0489C54.02 36.7279 54.8768 37.5035 55.193 37.772C55.5093 38.0408 56.1072 38.5907 56.5218 38.9941C56.9364 39.3976 57.8734 40.2076 58.6043 40.794C59.3351 41.3806 60.0788 41.9977 60.2568 42.1652C60.4349 42.3325 60.6422 42.4697 60.7172 42.4697C60.7924 42.4697 61.1804 42.8163 61.5794 43.2397C62.2485 43.9497 62.2718 44.0148 61.8785 44.0762C61.6438 44.1127 60.6041 43.9567 59.5681 43.7292C58.4556 43.485 56.5964 43.2789 55.0268 43.2257C53.5652 43.1762 52.2187 43.0723 52.0345 42.9949C51.8503 42.9175 51.5872 42.4508 51.4498 41.9578C51.1548 40.8994 50.5097 40.2333 49.3377 39.7766C48.4266 39.4218 48.2461 39.1631 47.5633 37.2339C47.1175 35.9734 46.5837 34.7371 45.9081 33.3998L45.527 32.6456L46.153 32.1165C46.4972 31.8255 46.8409 31.5876 46.9167 31.5878C46.9924 31.588 47.6062 31.8785 48.2808 32.2331ZM101.066 32.152C101.186 32.4758 102.278 34.0022 102.572 34.2566C102.637 34.3131 102.947 34.8905 103.26 35.5399C103.573 36.1894 103.902 36.7205 103.989 36.7205C104.077 36.7205 104.449 37.1909 104.816 37.7661C105.184 38.341 105.593 38.9204 105.725 39.0535C106.289 39.6198 106.41 40.1109 106.173 40.8723C105.958 41.5609 105.863 41.6322 105.014 41.7402C104.505 41.8048 102.93 41.88 101.515 41.9071C98.7178 41.9607 98.0722 41.7734 98.4712 41.0244C98.8267 40.3571 98.7045 40.1908 97.9048 40.2536C97.201 40.3088 97.1329 40.2669 97.0728 39.7419C97.0368 39.4274 97.1856 38.5958 97.4035 37.894C97.6214 37.1922 98.0047 35.8325 98.2552 34.8726C98.5058 33.9127 98.7431 33.0164 98.783 32.8809C98.8621 32.6107 100.252 31.8163 100.671 31.8017C100.815 31.7968 100.993 31.9545 101.066 32.152ZM44.1915 33.7946C44.4986 34.4441 44.9234 35.3245 45.1356 35.7516C45.3476 36.1785 45.5211 36.6062 45.5211 36.7019C45.5211 36.7975 45.6771 37.2334 45.8678 37.6708C46.0583 38.1081 46.321 38.8623 46.4517 39.3469C46.6702 40.1589 46.6536 40.2557 46.2397 40.5827C45.9925 40.7778 45.6806 41.1437 45.5465 41.3956C45.3208 41.8192 45.1589 41.8537 43.3984 41.8537C42.3511 41.8537 40.795 41.7944 39.9401 41.7217C38.4045 41.5913 38.3843 41.5821 38.2504 40.9517C38.1758 40.6008 38.0271 40.2045 37.9202 40.0709C37.7043 39.8013 37.8675 39.5052 39.4865 37.2277C40.0509 36.4339 40.6047 35.6391 40.7172 35.4615C42.3192 32.9302 42.5727 32.6273 43.0952 32.6208C43.5517 32.615 43.7181 32.7933 44.1915 33.7946ZM44.5501 43.7008C45.3739 43.7015 45.5211 43.762 45.5211 44.0992C45.5211 44.3491 45.2175 44.6681 44.7034 44.9583C44.2537 45.2122 43.8857 45.4952 43.8857 45.5874C43.8857 45.6796 43.7851 45.7549 43.6625 45.7549C43.5396 45.7549 43.2052 45.9397 42.9194 46.1656C42.4039 46.5729 41.5295 46.7196 41.3985 46.4208C41.3002 46.1964 39.6664 44.9336 39.4745 44.9336C39.1852 44.9336 38.3663 44.0491 38.3663 43.7368C38.3663 43.4774 38.7479 43.4526 40.9727 43.5666C42.4061 43.6399 44.0159 43.7004 44.5501 43.7008ZM106.031 43.8957C106.031 44.1501 102.815 47.277 102.473 47.3552C102.029 47.4569 98.5579 44.3495 98.8208 44.0854C98.9692 43.9363 100.297 43.8559 104.446 43.7444C105.334 43.7203 106.031 43.7869 106.031 43.8957ZM92.5898 44.8088C92.7864 44.9589 92.9475 45.1743 92.9475 45.2876C92.9475 45.4009 93.2975 45.7373 93.7251 46.035C94.7013 46.7144 96.2115 46.7883 96.8113 46.1859C97.5376 45.4564 97.9532 45.4775 98.8028 46.2875C99.2364 46.7011 99.9582 47.2815 100.407 47.5778C100.855 47.8739 101.308 48.1782 101.414 48.2538C101.522 48.3308 101.365 48.7092 101.058 49.1135L100.51 49.8356L98.5831 49.7972C96.7069 49.7598 96.6396 49.7746 96.0284 50.3619C95.6831 50.6935 95.4006 51.0684 95.4006 51.1949C95.4006 51.5014 80.059 51.385 79.0941 51.071L78.426 50.8538L80.4228 49.8446C81.521 49.2894 82.7876 48.5632 83.2374 48.2306C84.5054 47.2926 86.4705 46.3968 88.859 45.6679C89.365 45.5135 90.2389 45.2016 90.801 44.9747C92.0429 44.4733 92.1382 44.4644 92.5898 44.8088ZM39.3048 46.181C40.1407 46.867 40.7775 47.5049 40.7198 47.5986C40.6622 47.6924 40.0859 48.0657 39.4395 48.4281C38.7929 48.7905 37.9623 49.3143 37.5938 49.5919C37.0813 49.9779 36.7806 50.0654 36.3161 49.9629L35.7088 49.8288V47.8308V45.8327L36.5776 45.3862C37.0553 45.1404 37.5226 44.9381 37.6158 44.9365C37.7088 44.9349 38.4691 45.495 39.3048 46.181ZM52.5149 45.8779C52.772 46.0272 53.2126 46.2598 53.4937 46.3947C53.7747 46.5296 54.9246 47.0949 56.049 47.6505C57.1733 48.2063 58.8291 48.9428 59.7286 49.2874C60.6281 49.6317 61.754 50.0867 62.2305 50.2982C62.7073 50.5097 63.1848 50.6828 63.2917 50.6828C63.5996 50.6828 63.7901 51.125 63.5472 51.276C63.4262 51.3511 62.7475 51.3638 62.039 51.3043C61.3305 51.2448 58.4049 51.2489 55.5379 51.3133L50.3251 51.4308L49.5041 50.6505C48.0744 49.2917 46.1372 49.3089 44.7171 50.6932L43.8853 51.5041L40.9725 51.4948C38.318 51.4866 38.0958 51.4581 38.4685 51.1725C41.728 48.6751 41.8877 48.6057 42.6608 49.3498C43.3424 50.0056 43.6803 49.9081 43.2868 49.1695C42.9217 48.4843 43.0729 48.0125 43.7835 47.6201C44.8571 47.0271 46.0953 46.1896 46.2356 45.9619C46.3253 45.8159 46.5984 45.8826 47.0435 46.1588C47.7594 46.6033 49.0382 46.7062 49.8743 46.3869C50.147 46.2828 50.636 45.9204 50.9608 45.5816C51.4807 45.0396 51.5815 45.004 51.7994 45.2862C51.9355 45.4623 52.2575 45.7286 52.5149 45.8779ZM58.3381 45.2769C60.1953 45.365 61.4175 45.3235 62.2598 45.1441C63.417 44.8975 63.5256 44.909 64.2635 45.3566C65.1634 45.9026 66.8172 47.2117 67.6866 48.0663C68.2735 48.6433 68.2786 48.6665 67.9421 49.2385C67.7535 49.5594 67.5989 50.0272 67.5989 50.2777C67.5989 50.66 67.5494 50.6918 67.2913 50.4766C67.0905 50.3093 66.6964 50.2662 66.1594 50.3524C65.4292 50.4696 65.2278 50.4023 64.3933 49.7625C63.8755 49.3652 63.2993 49.0402 63.113 49.0402C62.9268 49.0402 62.687 48.9529 62.5803 48.8463C62.3399 48.6063 59.4127 47.3992 59.0691 47.3982C58.9313 47.398 58.5174 47.2132 58.1492 46.9877C57.781 46.7623 57.2305 46.5775 56.9255 46.5771C56.3889 46.5762 53.2892 45.2248 53.2892 44.9915C53.2892 44.9281 53.8181 44.9375 54.4647 45.0125C55.1113 45.0876 56.8542 45.2065 58.3381 45.2769ZM72.2359 45.3829C72.1706 45.5465 72.1222 45.4979 72.1124 45.2587C72.1036 45.0422 72.1518 44.9211 72.2197 44.9893C72.2876 45.0574 72.2949 45.2346 72.2359 45.3829ZM108.193 45.6861C108.568 45.7771 108.647 46.0377 108.861 47.8768C108.995 49.0248 109.16 50.3107 109.229 50.7341C109.317 51.2729 109.28 51.5041 109.105 51.5041C108.967 51.5041 108.638 51.6753 108.373 51.8848L107.891 52.2654L105.969 50.4103L104.046 48.5554L105.447 47.1481C106.218 46.374 106.848 45.6408 106.848 45.5186C106.848 45.3827 107.027 45.3519 107.308 45.4395C107.561 45.5184 107.96 45.6293 108.193 45.6861ZM104.86 51.0501C105.621 51.6683 106.301 52.2663 106.37 52.379C106.557 52.6829 102.108 52.3508 101.782 52.0365C101.501 51.7655 101.619 51.4314 102.421 50.2331C102.884 49.542 103.086 49.6097 104.86 51.0501ZM61.4507 53.2791C60.4647 54.3594 60.0138 54.7893 59.867 54.7893C59.7846 54.7893 59.5653 54.9511 59.3796 55.1486C58.5838 55.9954 57.1524 56.9323 56.9989 56.7071C56.6827 56.2434 55.305 55.8159 54.127 55.8159C52.9346 55.8159 52.8442 55.8531 52.0625 56.6621C51.0886 57.6698 50.959 58.6807 51.6845 59.6069C52.0471 60.0701 52.0739 60.2001 51.8378 60.3502C51.6804 60.4504 51.4451 60.5335 51.3149 60.5354C50.97 60.5399 48.9612 61.6027 48.4965 62.0263C48.141 62.3505 47.4981 62.3544 47.1565 62.0343C46.9772 61.8661 47.1686 58.4277 47.4272 57.1701C47.6745 55.9673 47.7616 55.8601 48.8397 55.433C49.1824 55.2973 49.6176 54.8133 49.9641 54.1822L50.5295 53.1526L55.0268 53.1344C57.5004 53.1245 59.9381 53.0422 60.4441 52.9518C61.956 52.6816 61.9869 52.6917 61.4507 53.2791ZM78.1437 52.9607C79.1898 53.1551 81.1907 53.9937 81.4997 54.3672C81.556 54.4351 81.8779 54.6676 82.2152 54.8838C83.0994 55.4501 85.0645 57.153 86.679 58.7517C87.4477 59.5129 88.3676 60.2867 88.7233 60.4715C89.6792 60.968 90.4944 61.6113 90.4944 61.869C90.4944 61.9936 90.0809 62.5032 89.5755 63.0014C88.6656 63.8982 88.6497 63.9044 87.9191 63.6391C87.4473 63.4677 86.8011 63.4188 86.1267 63.5034L85.0721 63.6358L84.311 62.6517C83.8925 62.1107 82.9048 60.9879 82.1161 60.157C81.3274 59.326 80.6821 58.6033 80.6821 58.5509C80.6821 58.4983 79.831 57.6298 78.7911 56.6204C77.7512 55.6112 76.6976 54.5852 76.4501 54.3403C76.0187 53.9136 76.0142 53.8711 76.3409 53.3157C76.5284 52.9968 76.7385 52.736 76.808 52.736C76.8775 52.736 77.4785 52.8371 78.1437 52.9607ZM44.2946 53.9109C44.5757 54.3298 45.0528 54.9066 45.3547 55.1928C45.8807 55.6913 45.8954 55.7611 45.7022 56.8426C45.5912 57.4637 45.4081 58.5109 45.2948 59.1696C44.944 61.2134 44.8443 61.3598 43.8048 61.3598C42.9683 61.3598 42.7765 61.2499 41.3977 59.9816C40.5736 59.2236 39.7406 58.4152 39.5462 58.185C39.352 57.9548 38.8659 57.397 38.466 56.9452C37.2487 55.5698 37.1391 55.2495 37.5001 54.122L37.8125 53.1467L40.7981 53.1481L43.7835 53.1496L44.2946 53.9109ZM95.3037 53.9011C95.419 54.2594 95.6721 54.7285 95.8659 54.9437C96.2896 55.4141 96.3123 55.6106 95.9431 55.6106C95.6575 55.6106 92.1298 59.2301 92.1298 59.5231C92.1298 60.0551 90.3004 59.8777 89.5723 59.2753C89.3885 59.1231 87.8878 57.6832 86.2377 56.0755L83.2374 53.1525L89.1656 53.2009L95.0939 53.2494L95.3037 53.9011ZM104.6 54.29C107.209 54.5027 107.186 54.4926 107.439 55.5012C107.773 56.8333 107.72 57.5514 107.257 57.9719C107.032 58.1762 106.848 58.4677 106.848 58.6197C106.848 58.7716 106.768 58.8959 106.669 58.8959C106.57 58.8959 106.372 59.1808 106.228 59.5293C106.084 59.8777 105.864 60.2705 105.739 60.4019C105.524 60.6266 104.133 62.6396 103.677 63.3831C102.533 65.2524 101.64 66.5931 101.447 66.7324C101.343 66.8075 101.057 66.7166 100.81 66.5301C100.416 66.2312 100.348 65.9345 100.242 64.0321C100.175 62.8447 99.9357 60.5847 99.7105 59.0098C99.312 56.226 99.3488 55.6106 99.9137 55.6106C100.157 55.6106 101.04 54.6905 101.201 54.2702C101.313 53.975 101.499 53.9378 102.304 54.0487C102.835 54.1218 103.869 54.2306 104.6 54.29ZM70.5839 55.8182L71.1767 56.0258L71.2135 62.7989L71.2505 69.572L70.7726 69.6926C70.2164 69.8328 69.7137 69.5967 68.8171 68.7741C68.1376 68.1508 68.1617 67.7475 68.9164 67.1182C69.1272 66.9426 69.2343 66.5038 69.2343 65.8166C69.2343 64.8555 69.167 64.7152 68.3107 63.8913C67.4184 63.0324 67.3432 63.0024 66.0798 63.0024C64.7807 63.0024 64.7682 63.0079 64.1415 63.8641C63.5953 64.6101 63.5104 64.8984 63.5104 66.0094C63.5104 67.0685 63.5936 67.3832 63.9859 67.8085C64.5608 68.4314 65.3406 68.7515 66.2834 68.7515C66.6696 68.7515 66.9856 68.8246 66.9856 68.9138C66.9856 69.0031 67.3575 69.4881 67.8119 69.9917C68.4687 70.7196 68.6122 71.0124 68.5113 71.4187C68.3177 72.198 68.0546 72.2756 66.068 72.1401C64.4342 72.0286 64.0203 71.9113 62.3385 71.0841C61.2977 70.5722 60.3905 70.0626 60.3222 69.9515C60.2537 69.8404 60.0181 69.6827 59.7983 69.601C59.4064 69.4554 59.4072 69.4417 59.8371 68.8928C60.2127 68.4134 60.2664 68.1148 60.212 66.8085L60.1487 65.284L62.537 62.8599C65.3498 60.0048 66.7812 58.4431 66.7812 58.229C66.7812 58.1439 66.8963 58.0711 67.0367 58.067C67.1774 58.0628 67.7982 57.5117 68.4166 56.8426C69.6258 55.534 69.6881 55.5045 70.5839 55.8182ZM78.8657 59.5769C80.8137 61.6304 82.7322 63.657 83.129 64.0808C83.832 64.8312 83.8506 64.8937 83.8506 66.5106C83.8506 67.9352 83.9099 68.2187 84.2695 68.5121C84.9766 69.0897 85.0277 69.5591 84.5054 70.6857C83.7229 72.3743 83.2171 73.6763 82.6599 75.4358C82.0932 77.226 81.2563 79.0351 80.8311 79.3895C80.6138 79.5706 80.5976 79.2653 80.7432 77.7233C81.0308 74.6752 80.6123 64.2789 80.1387 62.7123C79.7773 61.5158 79.6019 63.5952 79.5017 70.2656C79.4424 74.2311 79.3232 77.2915 79.2374 77.0663C79.0054 76.4585 77.6652 71.0249 77.4143 69.6755C77.3305 69.2238 77.195 68.6963 77.1134 68.5035C76.9985 68.2317 77.0958 68.1245 77.546 68.0274C79.0479 67.7027 79.2511 67.3676 79.2511 65.215C79.2511 64.3374 79.1617 64.1101 78.6161 63.598C78.185 63.1936 77.768 63.0024 77.3164 63.0024C76.652 63.0024 76.6514 63.0016 76.1923 61.2058C75.9396 60.2177 75.5126 58.6238 75.2434 57.6639C74.9739 56.704 74.7538 55.8523 74.7538 55.771C74.7538 55.3552 75.6336 56.1695 78.8657 59.5769ZM73.8197 56.6886C73.7067 57.598 74.0178 59.3336 74.7734 62.008L75.2174 63.5802L74.7626 64.2218C74.4586 64.6508 74.303 65.1782 74.2934 65.8135C74.2809 66.6533 74.366 66.8432 75.0275 67.4522C75.6681 68.0419 75.7759 68.269 75.7759 69.0298C75.7759 69.5184 75.9139 70.3718 76.0825 70.9262C76.2512 71.4805 76.485 72.5347 76.6026 73.2687C76.8166 74.6069 76.9904 75.3066 77.8344 78.2276C78.2905 79.8064 78.2692 80.5365 77.7725 80.3451C77.6253 80.2885 77.4147 80.0679 77.3048 79.8552C77.0274 79.3191 75.5257 77.1123 75.2677 76.862C75.1514 76.749 74.8384 76.4072 74.5722 76.1021L74.0882 75.5477L74.5232 74.8071C74.7623 74.3999 74.9582 73.7161 74.9582 73.2876C74.9582 72.3953 74.5976 71.2155 74.3249 71.2155C74.2235 71.2155 74.1405 71.0802 74.1405 70.9147C74.1405 70.7494 73.9661 70.5202 73.7531 70.4057C73.5401 70.2913 73.27 69.9217 73.1531 69.5848C72.8598 68.7394 73.0912 56.1825 73.4042 55.973C73.8424 55.6796 73.9271 55.8256 73.8197 56.6886ZM97.3868 55.9808C97.5241 56.0687 97.7327 57.0087 97.8529 58.0823C97.9722 59.1509 98.1566 60.5795 98.2625 61.2571C98.3684 61.9347 98.5178 63.3989 98.5947 64.5107C98.794 67.3947 98.6581 67.4019 96.0625 64.6456C94.9036 63.4151 93.6382 62.0269 93.2506 61.561L92.546 60.7136L93.1546 60.0615C93.4894 59.7028 93.7638 59.3445 93.7642 59.2654C93.767 58.8531 95.1641 57.1307 95.9885 56.5229C97.0298 55.7552 97.0319 55.7544 97.3868 55.9808ZM92.8635 64.128C93.5281 64.7473 94.715 65.8503 95.501 66.5794C97.5088 68.4421 97.2474 68.4926 92.0131 67.2516C89.6618 66.6942 89.283 66.173 90.2201 64.785C90.539 64.3128 90.9151 63.8524 91.056 63.7621C91.1968 63.6718 91.3121 63.464 91.3121 63.3001C91.3121 62.7995 91.6059 62.9564 92.8635 64.128ZM92.6409 69.1408C93.3155 69.3486 94.3864 69.671 95.0208 69.8572C96.9278 70.4172 97.0793 71.0023 95.5637 71.9561C95.0805 72.26 94.6207 72.6084 94.5422 72.7302C94.3251 73.0661 92.9315 72.9946 92.1159 72.6059C91.7171 72.4158 91.2657 72.0253 91.1126 71.738C90.9595 71.4506 90.7577 71.2155 90.6643 71.2155C90.5709 71.2155 90.4944 71.0974 90.4944 70.9531C90.4944 70.8087 90.3333 70.5381 90.1367 70.3517C89.6027 69.8453 89.2679 69.4061 89.2679 69.2119C89.2679 69.1168 89.383 68.9212 89.5234 68.7772C89.8255 68.4678 90.8399 68.5861 92.6409 69.1408ZM87.7394 70.186C88.0092 70.1878 88.2895 70.4562 88.5469 70.9588C88.7636 71.3824 89.06 71.8742 89.2055 72.0518C89.9016 72.9014 90.3963 76.1433 89.83 76.1433C89.6896 76.1433 88.8431 76.6285 87.9491 77.2213C85.709 78.707 84.183 79.6624 83.3898 80.0761C83.1364 80.2084 82.8794 80.2669 82.8189 80.2061C82.7584 80.1453 82.9493 79.5528 83.2431 78.8894C83.5366 78.2259 84.2362 76.2973 84.7973 74.6034C86.2113 70.3358 86.399 69.9332 86.9106 70.0712C87.139 70.1328 87.5119 70.1845 87.7394 70.186ZM0.209702 112.438C0.0345103 112.55 -0.0182311 116.066 0.00527762 126.038L0.0367603 139.487L2.081 139.594C3.20533 139.654 4.24483 139.665 4.39099 139.62C4.60482 139.554 4.64468 137.837 4.59542 130.832C4.55801 125.537 4.60646 122.289 4.71869 122.542C4.82008 122.771 4.96727 122.958 5.04536 122.958C5.12345 122.958 5.35342 123.327 5.55621 123.779C5.759 124.231 5.99225 124.6 6.07443 124.6C6.15681 124.6 6.28008 124.762 6.34876 124.96C6.41724 125.157 6.75291 125.689 7.0945 126.14C7.43589 126.592 7.8063 127.147 7.91751 127.372C8.02872 127.598 8.38871 128.199 8.71743 128.707C9.04593 129.215 9.61301 130.139 9.97729 130.76C10.3418 131.381 10.702 131.936 10.778 131.992C10.8543 132.049 11.0902 132.407 11.3026 132.789C11.5152 133.171 11.7828 133.633 11.8974 133.816C12.8247 135.294 13.3037 136.011 13.4208 136.099C13.4967 136.155 13.6224 136.34 13.7003 136.509C13.7781 136.679 14.1146 137.233 14.4478 137.741C14.7811 138.25 15.1453 138.873 15.2572 139.127C15.4927 139.662 15.4687 139.657 17.6172 139.603C20.1449 139.54 19.9961 139.694 19.8745 137.264C19.6003 131.786 19.5695 130.265 19.7381 130.555C19.8367 130.724 20.0174 131.447 20.1396 132.161C20.2617 132.875 20.5031 133.744 20.676 134.092C20.8488 134.44 20.9906 134.826 20.991 134.95C20.9921 135.214 22.6009 137.4 22.8722 137.506C22.9742 137.546 23.2131 137.736 23.4037 137.93C24.5231 139.069 27.3595 139.987 29.7811 139.995C31.4406 140 33.4165 139.524 34.8326 138.778C35.8494 138.242 37.3442 136.84 37.3442 136.422C37.3442 136.104 36.4099 135.281 36.0389 135.272C35.9136 135.269 35.581 134.948 35.2999 134.559C35.0188 134.17 34.7167 133.849 34.6288 133.846C34.5407 133.843 34.169 134.141 33.8027 134.509C32.6383 135.679 29.8667 136.091 27.801 135.402C26.6491 135.017 25.3845 133.895 24.9501 132.871C24.4199 131.622 24.0842 131.684 31.3132 131.684C35.5898 131.684 37.9656 131.757 37.9813 131.89C37.9948 132.003 37.992 132.206 37.9748 132.342C37.9576 132.478 38.0292 133.281 38.1334 134.125C38.2919 135.407 38.4642 135.876 39.1756 136.963C39.6441 137.679 40.3586 138.494 40.7631 138.773C41.7675 139.467 43.3681 139.97 44.6257 139.986C45.6908 140 47.9987 139.376 48.576 138.918C48.751 138.779 49.101 138.549 49.3541 138.407C49.7973 138.158 49.814 138.178 49.814 138.972V139.795H51.7561H53.6981L53.7365 130.555C53.7576 125.473 53.7805 121.061 53.7876 120.751L53.8003 120.186H51.6538H49.5074L49.4998 126.785L49.4921 133.383L48.7502 134.293C47.179 136.219 44.2173 136.187 42.9282 134.231L42.3525 133.357L42.3074 126.874C42.2824 123.309 42.2593 120.319 42.2563 120.23C42.253 120.141 41.3075 120.095 40.155 120.127L38.0596 120.186L37.9499 123.677C37.8896 125.596 37.8207 126.965 37.7965 126.717C37.7726 126.47 37.661 126.21 37.5486 126.14C37.4361 126.071 37.3442 125.821 37.3442 125.586C37.3442 124.999 36.2562 123.274 35.2304 122.237C33.1248 120.106 29.7036 119.342 26.4512 120.276C24.7845 120.755 23.834 121.317 22.6784 122.509C21.7942 123.42 20.1897 126.479 20.1521 127.325C20.1408 127.577 20.0503 128.014 19.9507 128.296C19.8432 128.601 19.8119 125.594 19.8737 120.882C19.9307 116.522 19.9195 112.803 19.8487 112.618C19.7408 112.335 19.3771 112.281 17.5992 112.281H15.4785L15.3414 112.83C15.2659 113.132 15.2535 117.405 15.3138 122.326C15.3739 127.247 15.3649 131.135 15.2937 130.966C15.1464 130.615 14.7132 129.919 13.6322 128.296C13.2184 127.675 12.8176 127.028 12.7411 126.859C12.6646 126.69 12.3296 126.135 11.9964 125.627C11.6632 125.119 11.2948 124.518 11.1779 124.292C11.0609 124.067 10.6962 123.466 10.3675 122.958C10.039 122.45 9.47195 121.526 9.10767 120.905C8.74318 120.283 8.39014 119.729 8.32268 119.673C8.25543 119.616 7.8844 119.062 7.49824 118.441C7.11208 117.82 6.73696 117.265 6.6646 117.209C6.59244 117.152 6.37963 116.829 6.19176 116.49C6.0041 116.151 5.67191 115.597 5.45359 115.258C5.23526 114.919 4.87814 114.319 4.65981 113.923C3.85499 112.466 3.54529 112.28 1.91971 112.284C1.10896 112.286 0.339307 112.355 0.209702 112.438ZM78.9471 112.482C78.6683 112.935 78.6188 117.365 78.784 127.104L78.9571 137.308L79.5771 138.089C80.5291 139.289 81.3526 139.599 83.9467 139.737L86.2015 139.856V138.881C86.2015 137.565 85.7093 136.613 84.6497 135.881C83.0374 134.766 83.1333 135.455 83.1515 125.119L83.1678 115.874L83.5569 117.414C83.7709 118.261 83.9475 119.22 83.9496 119.545C83.9514 119.871 84.1442 120.887 84.3778 121.804C84.6117 122.721 84.9731 124.164 85.181 125.011C86.2027 129.172 86.4497 130.142 86.8025 131.376C87.7318 134.628 88.0162 135.681 88.3559 137.125C88.9833 139.794 88.7593 139.59 91.0515 139.586C92.1504 139.584 93.175 139.503 93.3281 139.406C93.4812 139.308 93.6826 138.871 93.7758 138.434C93.9445 137.64 94.2799 136.364 94.9829 133.84C95.1874 133.106 95.5551 131.766 95.8002 130.863C96.0451 129.96 96.6075 128.102 97.0497 126.735C97.4918 125.369 97.8551 124.075 97.8567 123.861C97.8586 123.647 97.9424 123.341 98.043 123.181C98.1779 122.966 98.2797 123.101 98.4306 123.694C98.9022 125.546 99.4709 127.912 99.9071 129.836C100.163 130.966 100.53 132.398 100.722 133.019C101.513 135.578 101.938 137.081 102.156 138.09C102.283 138.678 102.507 139.259 102.655 139.382C102.819 139.519 103.698 139.582 104.93 139.546L106.938 139.487L107.285 138.563C107.865 137.019 109.164 132.763 109.321 131.89C109.403 131.438 109.764 130.098 110.125 128.912C110.485 127.727 110.853 126.479 110.942 126.14C111.03 125.802 111.291 124.831 111.521 123.984C111.75 123.138 112.084 121.89 112.263 121.213C112.441 120.535 112.768 119.38 112.989 118.646C113.21 117.912 113.617 116.502 113.895 115.513C114.173 114.523 114.502 113.522 114.626 113.289C115.086 112.427 114.781 112.281 112.527 112.284C111.372 112.286 110.325 112.355 110.202 112.438C110.078 112.521 109.788 113.189 109.556 113.923C109.323 114.658 108.991 115.674 108.817 116.182C108.643 116.69 108.304 117.891 108.064 118.851C107.824 119.811 107.461 121.243 107.258 122.034C107.054 122.824 106.687 124.257 106.443 125.216C106.198 126.176 105.866 127.436 105.705 128.015C105.544 128.594 105.316 129.839 105.198 130.782C105.08 131.725 104.954 132.526 104.917 132.563C104.88 132.6 104.743 132.14 104.612 131.541C104.198 129.654 103.291 126.144 102.34 122.753C102.134 122.018 101.787 120.679 101.569 119.775C101.351 118.872 101.013 117.486 100.819 116.695C100.626 115.905 100.351 114.727 100.208 114.078C99.8323 112.367 99.689 112.253 97.9966 112.324C96.3826 112.391 96.4397 112.336 95.9315 114.334C95.7448 115.068 95.5104 115.946 95.4104 116.285C95.3106 116.624 95.0803 117.455 94.8983 118.133C94.7164 118.81 94.3932 119.965 94.1798 120.699C93.9663 121.433 93.5871 122.819 93.3371 123.779C93.0869 124.739 92.713 126.071 92.5059 126.739C92.2991 127.407 92.1298 128.127 92.1298 128.339C92.1298 128.945 91.4832 131.376 91.3221 131.376C91.2426 131.376 91.0126 130.475 90.8109 129.374C90.6093 128.273 90.2775 126.726 90.0737 125.935C89.8697 125.145 89.5046 123.62 89.2619 122.547C89.0193 121.474 88.6542 119.904 88.4502 119.057C88.2464 118.21 87.9912 117.055 87.8835 116.49C87.5975 114.991 87.001 112.826 86.808 112.586C86.5805 112.303 79.1178 112.204 78.9471 112.482ZM128.993 112.608C128.921 112.796 128.912 116.472 128.973 120.777C129.034 125.082 129.016 128.05 128.932 127.372C128.782 126.15 127.818 123.779 127.471 123.779C127.372 123.779 127.291 123.66 127.291 123.515C127.291 123.181 125.42 121.315 125.086 121.315C124.949 121.315 124.838 121.233 124.838 121.132C124.838 121.031 124.217 120.696 123.458 120.388C121.03 119.403 117.53 119.754 115.227 121.214C114.256 121.83 112.572 123.529 112.572 123.893C112.572 124.029 112.441 124.249 112.279 124.384C112.118 124.518 111.739 125.41 111.436 126.365C110.937 127.94 110.895 128.31 110.992 130.304C111.159 133.744 112.328 136.299 114.498 137.972C115.069 138.411 115.656 138.871 115.802 138.992C115.948 139.114 116.683 139.39 117.436 139.607C119.242 140.125 121.844 140.128 123.612 139.613C125 139.208 127.139 138.211 127.257 137.914C127.294 137.819 127.452 137.741 127.607 137.741C127.924 137.741 128.313 137.12 128.313 136.614C128.313 136.43 127.901 135.904 127.398 135.444C126.895 134.984 126.429 134.435 126.362 134.224C126.24 133.838 125.655 133.677 125.655 134.029C125.655 134.344 124.279 135.095 123.146 135.398C120.901 135.998 118.34 135.666 117.232 134.631C116.491 133.94 115.845 132.798 115.844 132.18L115.843 131.65L121.618 131.713C124.794 131.748 127.724 131.779 128.129 131.781L128.866 131.787L128.992 133.431C129.061 134.336 129.212 135.251 129.326 135.466C129.476 135.747 129.449 136.061 129.23 136.587C128.865 137.465 128.83 139.206 129.171 139.548C129.474 139.852 132.269 139.88 132.818 139.585C133.122 139.422 133.18 139.237 133.081 138.744C132.961 138.139 132.975 138.124 133.394 138.387C133.635 138.538 133.832 138.724 133.832 138.8C133.832 138.876 134.258 139.177 134.778 139.469C135.604 139.933 135.962 140 137.604 140C139.607 140 140.799 139.715 142.481 138.834C143.511 138.294 145.28 136.707 145.28 136.322C145.28 136.199 145.356 136.099 145.448 136.099C145.541 136.099 145.927 135.429 146.306 134.61C146.988 133.138 146.995 133.09 147 130.144C147.005 127.11 146.85 126.357 145.84 124.498C145.717 124.272 145.517 123.902 145.396 123.677C145.085 123.095 143.316 121.315 143.05 121.315C142.927 121.315 142.827 121.233 142.827 121.132C142.827 121.031 142.206 120.695 141.447 120.386C140.399 119.958 139.723 119.823 138.636 119.822C137.19 119.821 135.067 120.378 134.108 121.009C133.852 121.177 133.593 121.315 133.533 121.315C133.473 121.315 133.415 119.767 133.405 117.876C133.396 115.985 133.327 113.975 133.252 113.41L133.117 112.384L131.12 112.325C129.412 112.274 129.105 112.315 128.993 112.608ZM62.2839 119.86C61.255 120.185 59.5096 121.111 58.971 121.617C58.6666 121.903 58.363 122.137 58.2964 122.137C58.2295 122.137 58.2026 121.698 58.2363 121.161L58.2976 120.186L56.541 120.127L54.7844 120.068L54.6509 123.002C54.5773 124.615 54.517 129.054 54.5166 132.865L54.5158 139.795H56.4457C57.5926 139.795 58.4305 139.706 58.5104 139.576C58.5846 139.455 58.6474 136.753 58.65 133.57C58.6541 128.392 58.6956 127.672 59.0442 126.729C59.5761 125.289 60.4713 124.687 62.5642 124.36C64.1278 124.116 64.1719 124.12 64.5137 124.575L64.8633 125.041L66.7401 124.499C70.8965 123.298 73.765 124.054 74.0828 126.434L74.1863 127.209L71.9658 127.324C69.8834 127.431 67.3871 127.88 66.6122 128.287C66.4241 128.385 65.7182 128.721 65.0436 129.032C64.369 129.343 63.5871 129.836 63.3062 130.128C61.8111 131.679 62.0347 135.524 63.7259 137.343C64.0571 137.699 64.3281 138.076 64.3281 138.18C64.3281 138.285 64.4892 138.431 64.6859 138.505C64.8825 138.579 65.1356 138.761 65.248 138.908C65.5831 139.349 67.7171 140 68.8255 140C70.0737 140 71.7685 139.43 72.9977 138.597C73.989 137.925 74.1405 138.004 74.1405 139.196V139.795H76.1847H78.229V131.983C78.229 124.199 78.2273 124.168 77.7533 123.274C77.0652 121.975 75.7141 120.803 74.2885 120.267C72.1676 119.471 69.573 119.644 65.803 120.834C64.4751 121.253 64.3187 121.21 64.3784 120.443C64.4285 119.798 64.4027 119.774 63.6126 119.737C63.1629 119.716 62.565 119.771 62.2839 119.86ZM31.0203 124.315C32.3997 124.937 33.2295 125.961 33.4022 127.255L33.5139 128.091H29.092H24.6699L24.6854 127.629C24.7392 126.032 25.9941 124.602 27.9406 123.919C28.6841 123.658 29.9144 123.817 31.0203 124.315ZM122.282 124.301C123.508 124.886 124.168 125.814 124.527 127.458L124.671 128.117L120.257 128.052L115.843 127.988V127.409C115.843 126.692 116.752 125.095 117.405 124.665C118.843 123.719 120.761 123.576 122.282 124.301ZM139.369 124.323C141.637 125.235 142.751 127.909 142.204 131.126C141.769 133.685 140.782 135.01 138.903 135.558C137.412 135.994 136.849 135.981 135.888 135.489C134.792 134.927 133.892 133.757 133.637 132.563C133.332 131.131 133.361 126.553 133.679 125.993C134.654 124.276 137.312 123.497 139.369 124.323ZM38.0983 129.066C38.047 129.264 38.0049 129.102 38.0049 128.707C38.0049 128.312 38.047 128.15 38.0983 128.348C38.1498 128.545 38.1498 128.869 38.0983 129.066ZM73.4761 131.095C73.8627 131.199 73.9361 131.36 73.9361 132.102C73.9361 132.587 73.7543 133.411 73.5323 133.931C73.205 134.698 72.9607 134.949 72.2444 135.258C70.014 136.218 68.0165 135.936 67.2771 134.557C66.9356 133.92 66.9343 133.829 67.2555 132.984C67.5192 132.291 67.7935 131.985 68.4665 131.633C68.945 131.383 69.5665 131.143 69.8476 131.1C70.7133 130.967 72.9908 130.964 73.4761 131.095Z" fill="#00234A"/>
</svg>
